<svg xmlns="http://www.w3.org/2000/svg" width="384" height="288" viewBox="0 0 384 288">
<!-- Approved source SHA-256: d1870fd928207602e18f5d567a76e2fdb170e935338e12a83bd0de7d7cc45c15; crop (1050, 817, 1400, 1066); pixel contour, no character redrawing. -->
<g transform="translate(26.097087 16.000000) scale(1.242718)"><path fill="black" d="M184 0h3v1h-3ZM164 1h8v1h-8ZM180 1h10v1h-10ZM161 2h13v1h-13ZM178 2h14v1h-14ZM159 3h16v1h-16ZM176 3h17v1h-17ZM158 4h36v1h-36ZM157 5h26v1h-26ZM187 5h8v1h-8ZM157 6h8v1h-8ZM172 6h9v1h-9ZM189 6h7v1h-7ZM156 7h7v1h-7ZM173 7h6v1h-6ZM190 7h6v1h-6ZM155 8h7v1h-7ZM175 8h3v1h-3ZM191 8h9v1h-9ZM155 9h5v1h-5ZM192 9h10v1h-10ZM224 9h22v1h-22ZM149 10h11v1h-11ZM192 10h12v1h-12ZM218 10h33v1h-33ZM146 11h13v1h-13ZM192 11h13v1h-13ZM213 11h42v1h-42ZM144 12h14v1h-14ZM193 12h13v1h-13ZM208 12h49v1h-49ZM142 13h16v1h-16ZM199 13h60v1h-60ZM141 14h16v1h-16ZM201 14h60v1h-60ZM140 15h9v1h-9ZM202 15h60v1h-60ZM140 16h7v1h-7ZM203 16h60v1h-60ZM139 17h6v1h-6ZM203 17h61v1h-61ZM139 18h5v1h-5ZM204 18h61v1h-61ZM138 19h5v1h-5ZM204 19h62v1h-62ZM138 20h5v1h-5ZM204 20h62v1h-62ZM138 21h5v1h-5ZM204 21h63v1h-63ZM138 22h5v1h-5ZM204 22h63v1h-63ZM138 23h5v1h-5ZM203 23h64v1h-64ZM138 24h5v1h-5ZM203 24h64v1h-64ZM138 25h5v1h-5ZM202 25h65v1h-65ZM137 26h6v1h-6ZM201 26h66v1h-66ZM135 27h8v1h-8ZM201 27h66v1h-66ZM134 28h8v1h-8ZM201 28h66v1h-66ZM133 29h8v1h-8ZM201 29h66v1h-66ZM132 30h7v1h-7ZM201 30h66v1h-66ZM132 31h6v1h-6ZM200 31h66v1h-66ZM131 32h6v1h-6ZM199 32h14v1h-14ZM214 32h52v1h-52ZM131 33h5v1h-5ZM198 33h15v1h-15ZM215 33h50v1h-50ZM130 34h6v1h-6ZM196 34h18v1h-18ZM217 34h48v1h-48ZM130 35h5v1h-5ZM185 35h3v1h-3ZM193 35h22v1h-22ZM219 35h45v1h-45ZM130 36h5v1h-5ZM185 36h31v1h-31ZM222 36h41v1h-41ZM130 37h5v1h-5ZM184 37h32v1h-32ZM224 37h38v1h-38ZM130 38h5v1h-5ZM184 38h33v1h-33ZM226 38h34v1h-34ZM90 39h10v1h-10ZM122 39h13v1h-13ZM184 39h33v1h-33ZM229 39h30v1h-30ZM85 40h19v1h-19ZM118 40h17v1h-17ZM183 40h35v1h-35ZM232 40h25v1h-25ZM82 41h25v1h-25ZM116 41h20v1h-20ZM182 41h36v1h-36ZM236 41h18v1h-18ZM80 42h29v1h-29ZM114 42h22v1h-22ZM182 42h37v1h-37ZM242 42h7v1h-7ZM78 43h33v1h-33ZM112 43h25v1h-25ZM181 43h38v1h-38ZM76 44h15v1h-15ZM100 44h26v1h-26ZM128 44h10v1h-10ZM179 44h41v1h-41ZM75 45h11v1h-11ZM104 45h15v1h-15ZM128 45h11v1h-11ZM163 45h3v1h-3ZM177 45h43v1h-43ZM74 46h9v1h-9ZM106 46h10v1h-10ZM126 46h16v1h-16ZM163 46h6v1h-6ZM175 46h46v1h-46ZM72 47h9v1h-9ZM108 47h6v1h-6ZM124 47h19v1h-19ZM162 47h40v1h-40ZM205 47h16v1h-16ZM71 48h8v1h-8ZM109 48h4v1h-4ZM122 48h21v1h-21ZM161 48h39v1h-39ZM206 48h15v1h-15ZM70 49h8v1h-8ZM110 49h2v1h-2ZM120 49h24v1h-24ZM160 49h39v1h-39ZM207 49h15v1h-15ZM70 50h7v1h-7ZM118 50h26v1h-26ZM159 50h40v1h-40ZM208 50h14v1h-14ZM69 51h6v1h-6ZM116 51h29v1h-29ZM158 51h41v1h-41ZM208 51h15v1h-15ZM68 52h6v1h-6ZM115 52h32v1h-32ZM156 52h43v1h-43ZM209 52h14v1h-14ZM62 53h12v1h-12ZM113 53h36v1h-36ZM154 53h45v1h-45ZM209 53h14v1h-14ZM58 54h15v1h-15ZM111 54h88v1h-88ZM210 54h14v1h-14ZM55 55h17v1h-17ZM110 55h89v1h-89ZM210 55h14v1h-14ZM53 56h18v1h-18ZM109 56h90v1h-90ZM210 56h14v1h-14ZM51 57h20v1h-20ZM107 57h93v1h-93ZM210 57h15v1h-15ZM49 58h14v1h-14ZM106 58h94v1h-94ZM210 58h15v1h-15ZM48 59h10v1h-10ZM104 59h96v1h-96ZM210 59h15v1h-15ZM46 60h10v1h-10ZM103 60h98v1h-98ZM209 60h16v1h-16ZM45 61h9v1h-9ZM102 61h64v1h-64ZM168 61h34v1h-34ZM209 61h17v1h-17ZM44 62h8v1h-8ZM101 62h63v1h-63ZM170 62h33v1h-33ZM208 62h18v1h-18ZM43 63h8v1h-8ZM100 63h63v1h-63ZM171 63h34v1h-34ZM206 63h20v1h-20ZM42 64h7v1h-7ZM99 64h40v1h-40ZM140 64h23v1h-23ZM172 64h54v1h-54ZM41 65h7v1h-7ZM98 65h40v1h-40ZM140 65h23v1h-23ZM172 65h54v1h-54ZM40 66h7v1h-7ZM97 66h41v1h-41ZM140 66h22v1h-22ZM173 66h54v1h-54ZM40 67h6v1h-6ZM96 67h41v1h-41ZM140 67h22v1h-22ZM173 67h54v1h-54ZM39 68h6v1h-6ZM95 68h42v1h-42ZM140 68h22v1h-22ZM173 68h54v1h-54ZM38 69h7v1h-7ZM94 69h42v1h-42ZM140 69h23v1h-23ZM174 69h53v1h-53ZM38 70h6v1h-6ZM94 70h42v1h-42ZM140 70h23v1h-23ZM174 70h53v1h-53ZM37 71h6v1h-6ZM93 71h42v1h-42ZM140 71h23v1h-23ZM174 71h53v1h-53ZM37 72h6v1h-6ZM92 72h42v1h-42ZM140 72h23v1h-23ZM174 72h53v1h-53ZM37 73h5v1h-5ZM92 73h42v1h-42ZM141 73h23v1h-23ZM174 73h53v1h-53ZM36 74h6v1h-6ZM91 74h42v1h-42ZM141 74h23v1h-23ZM173 74h54v1h-54ZM36 75h5v1h-5ZM91 75h41v1h-41ZM141 75h24v1h-24ZM173 75h54v1h-54ZM36 76h5v1h-5ZM91 76h41v1h-41ZM141 76h25v1h-25ZM172 76h55v1h-55ZM14 77h9v1h-9ZM35 77h5v1h-5ZM90 77h41v1h-41ZM142 77h27v1h-27ZM170 77h57v1h-57ZM12 78h13v1h-13ZM35 78h5v1h-5ZM90 78h40v1h-40ZM142 78h85v1h-85ZM11 79h21v1h-21ZM35 79h5v1h-5ZM90 79h39v1h-39ZM142 79h85v1h-85ZM10 80h24v1h-24ZM35 80h5v1h-5ZM90 80h38v1h-38ZM142 80h85v1h-85ZM9 81h31v1h-31ZM90 81h38v1h-38ZM143 81h84v1h-84ZM8 82h7v1h-7ZM23 82h17v1h-17ZM90 82h37v1h-37ZM143 82h84v1h-84ZM7 83h7v1h-7ZM24 83h16v1h-16ZM90 83h36v1h-36ZM143 83h84v1h-84ZM7 84h6v1h-6ZM31 84h9v1h-9ZM90 84h35v1h-35ZM144 84h82v1h-82ZM7 85h5v1h-5ZM32 85h9v1h-9ZM91 85h33v1h-33ZM144 85h82v1h-82ZM6 86h6v1h-6ZM33 86h7v1h-7ZM91 86h32v1h-32ZM144 86h82v1h-82ZM6 87h5v1h-5ZM32 87h8v1h-8ZM92 87h29v1h-29ZM145 87h59v1h-59ZM207 87h19v1h-19ZM6 88h5v1h-5ZM31 88h7v1h-7ZM92 88h28v1h-28ZM145 88h59v1h-59ZM207 88h18v1h-18ZM6 89h5v1h-5ZM30 89h7v1h-7ZM93 89h26v1h-26ZM146 89h58v1h-58ZM207 89h18v1h-18ZM6 90h6v1h-6ZM30 90h6v1h-6ZM94 90h23v1h-23ZM146 90h57v1h-57ZM207 90h18v1h-18ZM6 91h6v1h-6ZM29 91h6v1h-6ZM95 91h20v1h-20ZM147 91h56v1h-56ZM207 91h17v1h-17ZM4 92h8v1h-8ZM28 92h6v1h-6ZM97 92h16v1h-16ZM147 92h41v1h-41ZM190 92h13v1h-13ZM206 92h18v1h-18ZM3 93h9v1h-9ZM28 93h5v1h-5ZM99 93h11v1h-11ZM148 93h40v1h-40ZM191 93h11v1h-11ZM206 93h18v1h-18ZM2 94h8v1h-8ZM27 94h6v1h-6ZM148 94h40v1h-40ZM192 94h10v1h-10ZM205 94h18v1h-18ZM2 95h6v1h-6ZM27 95h5v1h-5ZM149 95h40v1h-40ZM193 95h9v1h-9ZM205 95h18v1h-18ZM1 96h6v1h-6ZM26 96h6v1h-6ZM149 96h40v1h-40ZM195 96h6v1h-6ZM205 96h17v1h-17ZM1 97h5v1h-5ZM26 97h5v1h-5ZM150 97h40v1h-40ZM196 97h5v1h-5ZM204 97h18v1h-18ZM0 98h6v1h-6ZM26 98h5v1h-5ZM151 98h41v1h-41ZM203 98h18v1h-18ZM0 99h5v1h-5ZM25 99h5v1h-5ZM152 99h41v1h-41ZM203 99h17v1h-17ZM0 100h5v1h-5ZM25 100h5v1h-5ZM152 100h43v1h-43ZM202 100h18v1h-18ZM0 101h5v1h-5ZM25 101h5v1h-5ZM153 101h45v1h-45ZM201 101h18v1h-18ZM0 102h5v1h-5ZM25 102h5v1h-5ZM154 102h64v1h-64ZM0 103h5v1h-5ZM24 103h6v1h-6ZM155 103h62v1h-62ZM0 104h6v1h-6ZM24 104h5v1h-5ZM156 104h61v1h-61ZM0 105h6v1h-6ZM24 105h5v1h-5ZM157 105h59v1h-59ZM1 106h6v1h-6ZM24 106h5v1h-5ZM158 106h57v1h-57ZM1 107h7v1h-7ZM24 107h5v1h-5ZM159 107h55v1h-55ZM2 108h7v1h-7ZM24 108h5v1h-5ZM160 108h52v1h-52ZM3 109h8v1h-8ZM24 109h5v1h-5ZM162 109h49v1h-49ZM3 110h9v1h-9ZM24 110h6v1h-6ZM163 110h47v1h-47ZM5 111h7v1h-7ZM25 111h5v1h-5ZM165 111h43v1h-43ZM6 112h5v1h-5ZM25 112h5v1h-5ZM166 112h41v1h-41ZM6 113h5v1h-5ZM25 113h5v1h-5ZM168 113h37v1h-37ZM6 114h5v1h-5ZM25 114h6v1h-6ZM171 114h32v1h-32ZM6 115h5v1h-5ZM26 115h5v1h-5ZM174 115h27v1h-27ZM6 116h5v1h-5ZM26 116h5v1h-5ZM177 116h25v1h-25ZM6 117h6v1h-6ZM25 117h7v1h-7ZM183 117h8v1h-8ZM197 117h5v1h-5ZM7 118h6v1h-6ZM24 118h8v1h-8ZM197 118h5v1h-5ZM7 119h7v1h-7ZM23 119h10v1h-10ZM197 119h5v1h-5ZM8 120h8v1h-8ZM21 120h13v1h-13ZM197 120h5v1h-5ZM9 121h26v1h-26ZM197 121h5v1h-5ZM10 122h26v1h-26ZM197 122h5v1h-5ZM11 123h13v1h-13ZM29 123h7v1h-7ZM197 123h5v1h-5ZM13 124h10v1h-10ZM30 124h6v1h-6ZM197 124h5v1h-5ZM17 125h2v1h-2ZM30 125h5v1h-5ZM197 125h5v1h-5ZM29 126h6v1h-6ZM197 126h5v1h-5ZM29 127h5v1h-5ZM197 127h5v1h-5ZM29 128h5v1h-5ZM197 128h5v1h-5ZM28 129h6v1h-6ZM196 129h5v1h-5ZM28 130h5v1h-5ZM196 130h5v1h-5ZM28 131h5v1h-5ZM196 131h5v1h-5ZM28 132h5v1h-5ZM195 132h5v1h-5ZM28 133h5v1h-5ZM195 133h5v1h-5ZM28 134h5v1h-5ZM194 134h6v1h-6ZM28 135h5v1h-5ZM193 135h6v1h-6ZM28 136h5v1h-5ZM193 136h6v1h-6ZM28 137h5v1h-5ZM191 137h7v1h-7ZM28 138h5v1h-5ZM146 138h8v1h-8ZM190 138h7v1h-7ZM28 139h5v1h-5ZM142 139h15v1h-15ZM189 139h8v1h-8ZM28 140h6v1h-6ZM140 140h19v1h-19ZM189 140h7v1h-7ZM29 141h5v1h-5ZM139 141h21v1h-21ZM189 141h6v1h-6ZM29 142h5v1h-5ZM137 142h25v1h-25ZM189 142h6v1h-6ZM29 143h6v1h-6ZM136 143h27v1h-27ZM189 143h7v1h-7ZM30 144h5v1h-5ZM135 144h28v1h-28ZM189 144h7v1h-7ZM30 145h6v1h-6ZM134 145h30v1h-30ZM188 145h9v1h-9ZM31 146h5v1h-5ZM133 146h32v1h-32ZM188 146h9v1h-9ZM31 147h6v1h-6ZM132 147h33v1h-33ZM187 147h11v1h-11ZM32 148h7v1h-7ZM131 148h35v1h-35ZM186 148h12v1h-12ZM32 149h7v1h-7ZM131 149h35v1h-35ZM185 149h14v1h-14ZM33 150h7v1h-7ZM130 150h37v1h-37ZM184 150h15v1h-15ZM34 151h6v1h-6ZM130 151h37v1h-37ZM183 151h16v1h-16ZM34 152h7v1h-7ZM129 152h39v1h-39ZM182 152h18v1h-18ZM34 153h8v1h-8ZM129 153h39v1h-39ZM181 153h19v1h-19ZM34 154h9v1h-9ZM128 154h40v1h-40ZM180 154h21v1h-21ZM34 155h10v1h-10ZM128 155h41v1h-41ZM178 155h23v1h-23ZM33 156h13v1h-13ZM127 156h42v1h-42ZM176 156h26v1h-26ZM33 157h14v1h-14ZM126 157h43v1h-43ZM173 157h29v1h-29ZM33 158h17v1h-17ZM126 158h43v1h-43ZM171 158h31v1h-31ZM33 159h19v1h-19ZM64 159h4v1h-4ZM125 159h45v1h-45ZM171 159h32v1h-32ZM33 160h36v1h-36ZM124 160h46v1h-46ZM171 160h32v1h-32ZM33 161h37v1h-37ZM124 161h46v1h-46ZM171 161h33v1h-33ZM33 162h38v1h-38ZM114 162h2v1h-2ZM122 162h49v1h-49ZM172 162h32v1h-32ZM33 163h40v1h-40ZM112 163h5v1h-5ZM121 163h50v1h-50ZM172 163h32v1h-32ZM32 164h42v1h-42ZM111 164h60v1h-60ZM172 164h33v1h-33ZM32 165h44v1h-44ZM110 165h61v1h-61ZM173 165h32v1h-32ZM32 166h31v1h-31ZM64 166h14v1h-14ZM107 166h64v1h-64ZM173 166h33v1h-33ZM32 167h31v1h-31ZM64 167h17v1h-17ZM105 167h67v1h-67ZM174 167h32v1h-32ZM32 168h30v1h-30ZM64 168h21v1h-21ZM101 168h13v1h-13ZM116 168h56v1h-56ZM174 168h32v1h-32ZM32 169h30v1h-30ZM64 169h48v1h-48ZM119 169h53v1h-53ZM175 169h32v1h-32ZM32 170h30v1h-30ZM65 170h46v1h-46ZM122 170h14v1h-14ZM139 170h33v1h-33ZM175 170h32v1h-32ZM32 171h30v1h-30ZM65 171h43v1h-43ZM139 171h33v1h-33ZM175 171h32v1h-32ZM32 172h30v1h-30ZM65 172h41v1h-41ZM139 172h34v1h-34ZM176 172h32v1h-32ZM32 173h30v1h-30ZM65 173h37v1h-37ZM139 173h34v1h-34ZM176 173h32v1h-32ZM32 174h30v1h-30ZM65 174h29v1h-29ZM139 174h34v1h-34ZM177 174h31v1h-31ZM32 175h30v1h-30ZM65 175h29v1h-29ZM140 175h33v1h-33ZM177 175h32v1h-32ZM32 176h30v1h-30ZM65 176h29v1h-29ZM140 176h33v1h-33ZM178 176h31v1h-31ZM31 177h30v1h-30ZM66 177h28v1h-28ZM140 177h33v1h-33ZM178 177h32v1h-32ZM31 178h30v1h-30ZM66 178h28v1h-28ZM140 178h33v1h-33ZM178 178h32v1h-32ZM31 179h30v1h-30ZM66 179h28v1h-28ZM140 179h33v1h-33ZM179 179h31v1h-31ZM31 180h30v1h-30ZM66 180h28v1h-28ZM141 180h33v1h-33ZM179 180h32v1h-32ZM31 181h30v1h-30ZM66 181h28v1h-28ZM141 181h33v1h-33ZM180 181h31v1h-31ZM31 182h30v1h-30ZM66 182h29v1h-29ZM141 182h32v1h-32ZM180 182h31v1h-31ZM31 183h30v1h-30ZM66 183h29v1h-29ZM141 183h32v1h-32ZM180 183h32v1h-32ZM31 184h30v1h-30ZM67 184h28v1h-28ZM141 184h32v1h-32ZM181 184h31v1h-31ZM31 185h30v1h-30ZM67 185h28v1h-28ZM142 185h31v1h-31ZM181 185h31v1h-31ZM31 186h30v1h-30ZM67 186h28v1h-28ZM142 186h30v1h-30ZM182 186h31v1h-31ZM31 187h30v1h-30ZM67 187h28v1h-28ZM143 187h29v1h-29ZM182 187h31v1h-31ZM31 188h30v1h-30ZM67 188h28v1h-28ZM143 188h28v1h-28ZM182 188h31v1h-31ZM31 189h30v1h-30ZM67 189h28v1h-28ZM144 189h27v1h-27ZM183 189h31v1h-31ZM31 190h30v1h-30ZM68 190h27v1h-27ZM145 190h25v1h-25ZM183 190h31v1h-31ZM31 191h30v1h-30ZM68 191h27v1h-27ZM146 191h23v1h-23ZM184 191h30v1h-30ZM31 192h30v1h-30ZM68 192h27v1h-27ZM148 192h19v1h-19ZM184 192h30v1h-30ZM31 193h30v1h-30ZM68 193h27v1h-27ZM150 193h15v1h-15ZM184 193h30v1h-30ZM32 194h29v1h-29ZM69 194h26v1h-26ZM154 194h7v1h-7ZM185 194h29v1h-29ZM32 195h29v1h-29ZM69 195h26v1h-26ZM185 195h29v1h-29ZM32 196h29v1h-29ZM70 196h24v1h-24ZM185 196h29v1h-29ZM32 197h29v1h-29ZM71 197h22v1h-22ZM186 197h28v1h-28ZM32 198h29v1h-29ZM72 198h20v1h-20ZM186 198h27v1h-27ZM33 199h27v1h-27ZM74 199h16v1h-16ZM187 199h26v1h-26ZM34 200h26v1h-26ZM77 200h10v1h-10ZM187 200h25v1h-25ZM34 201h25v1h-25ZM188 201h23v1h-23ZM35 202h23v1h-23ZM190 202h20v1h-20ZM37 203h20v1h-20ZM191 203h17v1h-17ZM39 204h17v1h-17ZM194 204h12v1h-12ZM41 205h12v1h-12Z"/></g></svg>
